<?xml version="1.0" encoding="utf-8"?>
<!-- Generator: Adobe Illustrator 24.1.2, SVG Export Plug-In . SVG Version: 6.00 Build 0)  -->
<svg version="1.1" id="Layer_1" xmlns="http://www.w3.org/2000/svg" xmlns:xlink="http://www.w3.org/1999/xlink" x="0px" y="0px"
	 viewBox="0 0 1024 1024" style="enable-background:new 0 0 1024 1024;" xml:space="preserve">
<style type="text/css">
	.st0{fill:none;stroke:#000000;stroke-width:3.2;stroke-miterlimit:10;}
	.st1{fill:none;stroke:#000000;stroke-width:2.8125;stroke-miterlimit:10;}
</style>
<g>
	<path class="st0" d="M804.3,432.6c-2.3,23.5-21.5,42.3-46.5,44.8c-45.8,4.4-91.6,8.4-137.4,12.3c-18.2,1.6-21.9,6.2-23,24.2
		c-1.8,30.5,4.1,58.9,16,87.3c24.9,59.5,47.8,119.9,70.9,180.2c14.5,37.9-13.4,74.6-53.3,70.3c-21.2-2.3-34.7-15.1-42.6-34.6
		c-23.8-58.2-47.7-116.4-71.8-174.5c-1.2-3-2.6-5.9-5-11.2c-22.5,55-44,107.6-65.5,160.2c-4,9.9-7.8,19.8-12.2,29.5
		c-11.7,26.4-40.6,38.3-66.5,27.7c-26-10.6-38.5-39.3-28.1-66.3c26.4-67.9,52.7-135.9,80-203.4c10-24.7,7.1-49.8,6.6-74.9
		c-0.2-9.8-8.7-13.4-17.8-14.3c-30.5-2.8-61-5.6-91.6-8.3c-16.9-1.5-33.9-2.6-50.8-4.4c-28.7-3.1-48.3-26.8-46.2-55.2
		c2-27.7,24.8-48.5,53.5-46.5c42.9,2.9,85.7,6.9,128.4,11.1c73.6,7.4,147.8,7.4,221.5-0.1c42.4-4.3,84.9-8.3,127.4-11.1
		C783.7,373.5,807.5,399.6,804.3,432.6z"/>
	<path class="st0" d="M614.2,255.9c-0.1,56.4-46,102.1-102.5,101.9c-56.4-0.1-102.1-46-101.9-102.5s46-102.1,102.5-101.9l0,0
		c56.3,0,101.9,45.5,101.9,101.8C614.2,255.5,614.2,255.7,614.2,255.9z"/>
	<circle class="st0" cx="512" cy="512" r="512"/>
	<circle class="st1" cx="512" cy="512" r="450"/>
</g>
</svg>
