<?xml version="1.0" encoding="utf-8"?>
<!-- Generator: Adobe Illustrator 24.1.2, SVG Export Plug-In . SVG Version: 6.00 Build 0)  -->
<svg version="1.1" id="Layer_1" xmlns="http://www.w3.org/2000/svg" xmlns:xlink="http://www.w3.org/1999/xlink" x="0px" y="0px"
	 viewBox="0 0 1024 1024" style="enable-background:new 0 0 1024 1024;" xml:space="preserve">
<style type="text/css">
	.st0{fill:none;stroke:#000000;stroke-width:3.2;stroke-miterlimit:10;}
	.st1{fill:none;stroke:#000000;stroke-width:2.8125;stroke-miterlimit:10;}
</style>
<g>
	<path class="st0" d="M797.4,434.5c-2.2,22.9-21,41.3-45.4,43.8c-44.7,4.3-89.5,8.2-134.2,12c-17.8,1.6-21.4,6.1-22.5,23.6
		c-1.8,29.8,4,57.5,15.6,85.3c24.3,58.1,46.7,117.1,69.2,176c14.2,37-13.1,72.9-52.1,68.7c-20.7-2.2-33.9-14.7-41.6-33.8
		c-23.2-56.8-46.6-113.7-70.1-170.4c-1.2-2.9-2.5-5.8-4.9-10.9c-22,53.7-43,105.1-64,156.4c-3.9,9.7-7.6,19.3-11.9,28.8
		c-11.4,25.8-39.6,37.4-64.9,27.1c-25.4-10.4-37.6-38.4-27.4-64.7c25.8-66.3,51.5-132.7,78.1-198.6c9.8-24.1,6.9-48.6,6.4-73.1
		c-0.2-9.6-8.5-13.1-17.4-14c-29.8-2.7-59.6-5.5-89.5-8.1c-16.5-1.5-33.1-2.5-49.6-4.3c-28-3-47.2-26.2-45.1-53.9
		c2-27.1,24.2-47.4,52.2-45.4c41.9,2.8,83.7,6.7,125.4,10.8c71.9,7.2,144.3,7.2,216.3-0.1c41.4-4.2,82.9-8.1,124.4-10.8
		C777.3,376.7,800.6,402.2,797.4,434.5z"/>
	<path class="st0" d="M611.8,261.9c-0.1,55.1-44.9,99.7-100.1,99.5c-55.1-0.1-99.7-44.9-99.5-100.1c0.2-55.2,44.9-99.7,100.1-99.5
		l0,0c55,0,99.5,44.4,99.5,99.4C611.8,261.5,611.8,261.7,611.8,261.9z"/>
	<circle class="st0" cx="512" cy="512" r="500"/>
	<circle class="st1" cx="512" cy="512" r="439.5"/>
</g>
</svg>
