<svg xmlns="http://www.w3.org/2000/svg" viewBox="0 0 1860.47743 1151.3031">
  <defs>
    <style>
      .a, .b {
        fill: none;
        stroke-width: 4px;
      }

      .a {
        stroke: #003153;
      }

      .b {
        stroke: #000;
      }
    </style>
  </defs>
  <g>
    <path class="a" d="M2,1149.39021C2,515.70412,515.70407,2,1149.39021,2h0c391.61807,0,709.08722,317.46913,709.08722,709.08717h0c0,242.01994-196.19588,438.21593-438.21576,438.21593h-.00011c-149.56835,0-270.8174-121.24905-270.8174-270.81741a167.36518,167.36518,0,0,1,167.36519-167.36514h0A103.43164,103.43164,0,0,1,1420.241,814.55219a63.92074,63.92074,0,0,1-63.92074,63.9208,39.50208,39.50208,0,0,1-39.50207-39.50207,24.41289,24.41289,0,0,1,24.41286-24.41286,15.08714,15.08714,0,0,1,15.08716,15.08716h0"/>
    <g>
      <line class="b" x1="1149.39021" y1="2" x2="1149.39021" y2="1149.39021"/>
      <line class="b" x1="1149.39021" y1="711.08717" x2="1858.47743" y2="711.08717"/>
      <line class="b" x1="1420.26156" y1="711.08717" x2="1420.26156" y2="1149.39021"/>
      <line class="b" x1="1149.39021" y1="878.45231" x2="1420.26156" y2="878.45231"/>
      <line class="b" x1="1316.75541" y1="711.08717" x2="1316.75541" y2="878.45231"/>
      <line class="b" x1="1316.75541" y1="814.51881" x2="1420.26156" y2="814.51881"/>
      <line class="b" x1="1356.25844" y1="814.51881" x2="1356.25844" y2="878.45231"/>
      <line class="b" x1="1316.75541" y1="829.60603" x2="1356.25844" y2="829.60603"/>
      <line class="b" x1="1341.16827" y1="814.51881" x2="1341.16827" y2="829.60603"/>
    </g>
  </g>
</svg>
