<svg xmlns="http://www.w3.org/2000/svg" viewBox="0 0 2000 2000">
  <defs>
    <style>
      .a {
        fill: #003153;
      }
    </style>
  </defs>
  <g>
    <g>
      <path class="a" d="M440.43088,100h403.9989a0,0,0,0,1,0,0V320.47528a0,0,0,0,1,0,0H660.90594A220.47506,220.47506,0,0,1,440.43088,100.00022V100A0,0,0,0,1,440.43088,100Z" transform="translate(1284.86067 420.47528) rotate(-180)"/>
      <path class="a" d="M1322.332,100h403.9989a0,0,0,0,1,0,0V320.47528a0,0,0,0,1,0,0H1542.80706A220.47506,220.47506,0,0,1,1322.332,100.00022V100A0,0,0,0,1,1322.332,100Z" transform="translate(3048.6629 420.47528) rotate(-180)"/>
      <path class="a" d="M440.43088,100h.00022A220.47506,220.47506,0,0,1,660.90616,320.47506V981.90112a0,0,0,0,1,0,0H440.43088a0,0,0,0,1,0,0V100A0,0,0,0,1,440.43088,100Z"/>
      <path class="a" d="M1322.332,100h.00022a220.47506,220.47506,0,0,1,220.47506,220.47506V981.90112a0,0,0,0,1,0,0H1322.332a0,0,0,0,1,0,0V100A0,0,0,0,1,1322.332,100Z"/>
      <path class="a" d="M771.1438,540.95056H991.6193a220.47506,220.47506,0,0,1,220.47506,220.47506v.00022a0,0,0,0,1,0,0H991.61886A220.47506,220.47506,0,0,1,771.1438,540.95078v-.00022A0,0,0,0,1,771.1438,540.95056Z" transform="translate(1983.23816 1302.3764) rotate(-180)"/>
      <path class="a" d="M881.38144,540.95056H991.61908A110.23764,110.23764,0,0,1,1101.85672,651.1882v881.90112A110.23764,110.23764,0,0,1,991.61908,1643.327H881.38144a0,0,0,0,1,0,0V540.95056A0,0,0,0,1,881.38144,540.95056Z" transform="translate(2083.75784 100.51967) rotate(90)"/>
    </g>
    <g>
      <g>
        <path class="a" d="M385.58466,1657.06447V1480.48852l-68.96355,131.48505H287.44419l-68.96241-131.485v176.57595h-52.2907V1388.03234h56.07946l79.57324,153.0833,80.331-153.0833h55.70058v269.03213Z"/>
        <path class="a" d="M604.97483,1388.03234h53.04844l98.89823,269.03213H703.11416l-22.356-67.06917H581.97939l-22.47547,67.06917h-53.8062Zm63.53411,165.2085-37.01046-111.02343-37.1982,111.02343Z"/>
        <path class="a" d="M981.245,1458.51139a65.05222,65.05222,0,0,0-9.66193-7.1998,107.27407,107.27407,0,0,0-17.05173-8.7153,184.39681,184.39681,0,0,0-21.78713-7.38867,90.05823,90.05823,0,0,0-23.87265-3.221q-21.22563,0-32.01794,7.92228-10.79968,7.92057-10.79969,22.23768,0,10.94135,6.82092,17.34755,6.81978,6.4119,20.46162,10.93509,13.64127,4.52946,34.10233,9.79846,26.518,6.4119,46.03865,15.64773,19.51216,9.2364,29.93469,24.1332,10.4174,14.89226,10.41968,39.39523,0,21.49186-7.95641,36.76129a65.99015,65.99015,0,0,1-21.97714,24.69412,97.99545,97.99545,0,0,1-31.8302,13.76586,160.18153,160.18153,0,0,1-37.8911,4.33376,197.30387,197.30387,0,0,1-40.16549-4.16765,210.55024,210.55024,0,0,1-38.65-11.93632,176.78981,176.78981,0,0,1-34.10233-18.75611l23.11376-45.092q3.4099,3.4116,12.1252,8.90531a162.427,162.427,0,0,0,21.21938,10.98856,176.5326,176.5326,0,0,0,27.28254,9.28306,119.95229,119.95229,0,0,0,29.93469,3.7899q21.21539,0,32.20794-7.11674,10.98571-7.12356,10.98857-20.23634,0-12.06945-8.71531-18.86306-8.721-6.79419-24.25039-11.88855-15.54249-5.09776-36.75561-11.13078-25.38985-7.16795-42.43875-16.03912-17.05116-8.86435-25.387-22.45158-8.34042-13.57813-8.33643-33.96011,0-27.54877,13.073-46.22183,13.07124-18.67761,35.429-28.30085,22.352-9.62722,49.63742-9.62666a148.93614,148.93614,0,0,1,35.80784,4.16765,176.69422,176.69422,0,0,1,31.6402,10.98856,186.909,186.909,0,0,1,26.52365,14.77847Z"/>
        <path class="a" d="M1158.19985,1388.03234h53.04844l98.89823,269.03213h-53.80733l-22.356-67.06917h-98.77876l-22.47548,67.06917h-53.8062Zm63.53412,165.2085-37.01047-111.02343-37.19819,111.02343Z"/>
        <path class="a" d="M1379.489,1388.03234l66.31027,126.55851,67.448-126.55851h56.45834l-97.76047,175.06043v93.9717h-51.91181V1562.335l-97.38272-174.30268Z"/>
        <path class="a" d="M1681.86224,1388.03234h53.04845l98.89823,269.03213h-53.80734l-22.356-67.06917h-98.77876l-22.47548,67.06917h-53.8062Zm63.53412,165.2085-37.01047-111.02343-37.19819,111.02343Z"/>
      </g>
      <g>
        <path d="M370.1276,1871.7404,345.721,1775.5425h13.13126l11.41781,48.66945c2.85446,11.989,5.424,23.97792,7.13614,33.25619h.28622c1.56969-9.5632,4.5666-20.981,7.84974-33.39865l12.845-48.527h12.9875l11.704,48.81321c2.712,11.41781,5.28152,22.83562,6.70874,32.96867h.28493c1.99838-10.56173,4.71037-21.26593,7.70728-33.25489l12.70258-48.527h12.70257l-27.26106,96.1979h-12.9875l-12.13142-50.09668a289.50946,289.50946,0,0,1-6.28006-31.40027h-.28622a300.39429,300.39429,0,0,1-7.42106,31.40027L383.1151,1871.7404Z"/>
        <path d="M491.30844,1839.48405c.28493,16.98425,11.13288,23.97792,23.6917,23.97792,8.992,0,14.416-1.56969,19.12638-3.56807l2.14084,8.99205c-4.42543,1.99837-11.989,4.28168-22.97938,4.28168-21.26593,0-33.9685-13.98734-33.9685-34.82588,0-20.83724,12.27389-37.25164,32.39881-37.25164,22.5507,0,28.54453,19.84,28.54453,32.54257a47.468,47.468,0,0,1-.42739,5.85137Zm36.823-8.992c.14246-7.99221-3.28185-20.40986-17.41294-20.40986-12.70258,0-18.269,11.704-19.26756,20.40986Z"/>
        <path d="M569.52484,1871.7404c.28493-4.71036.57115-11.704.57115-17.84033v-83.49533h12.41635V1813.794h.28623c4.42414-7.70728,12.41764-12.70387,23.54923-12.70387,17.128,0,29.25944,14.27356,29.117,35.25456,0,24.69153-15.557,36.96542-30.97159,36.96542-9.99058,0-17.98408-3.853-23.12184-12.9875h-.42869l-.57114,11.41781Zm12.9875-27.68845a23.55172,23.55172,0,0,0,.57115,4.56661c2.42707,8.70582,9.70566,14.701,18.84017,14.701,13.13126,0,20.981-10.7042,20.981-26.54745,0-13.84358-7.13613-25.69007-20.55232-25.69007-8.56335,0-16.55686,5.85137-19.12509,15.41456a24.6882,24.6882,0,0,0-.71491,5.13776Z"/>
        <path d="M710.5418,1776.82726a177.804,177.804,0,0,1,26.405-1.99837c17.84033,0,30.5429,4.13921,38.9638,11.989,8.56465,7.84974,13.55994,18.98262,13.55994,34.53965,0,15.70078-4.85283,28.54582-13.84487,37.3954-8.992,8.99075-23.83546,13.84358-42.53186,13.84358a200.4629,200.4629,0,0,1-22.552-1.141Zm12.41764,85.065a78.3892,78.3892,0,0,0,12.56011.71361c26.54745,0,40.96218-14.84341,40.96218-40.8197.14246-22.69316-12.70258-37.10918-38.9638-37.10918a70.5611,70.5611,0,0,0-14.55849,1.28476Z"/>
        <path d="M827.00968,1839.48405c.28493,16.98425,11.13288,23.97792,23.6917,23.97792,8.992,0,14.416-1.56969,19.12639-3.56807l2.14083,8.99205c-4.42543,1.99837-11.989,4.28168-22.97937,4.28168-21.26594,0-33.96851-13.98734-33.96851-34.82588,0-20.83724,12.27389-37.25164,32.39882-37.25164,22.55069,0,28.54452,19.84,28.54452,32.54257a47.468,47.468,0,0,1-.42739,5.85137Zm36.823-8.992c.14246-7.99221-3.28185-20.40986-17.41294-20.40986-12.70257,0-18.269,11.704-19.26756,20.40986Z"/>
        <path d="M910.65006,1802.66109l13.55865,38.82134a177.74012,177.74012,0,0,1,5.56645,17.69786h.42868c1.56969-5.7089,3.56807-11.41781,5.85137-17.69786l13.41619-38.82134h13.13126l-27.1186,69.07931h-11.989l-26.26122-69.07931Z"/>
        <path d="M994.29045,1839.48405c.28492,16.98425,11.13288,23.97792,23.69169,23.97792,8.992,0,14.416-1.56969,19.12639-3.56807l2.14084,8.99205c-4.42544,1.99837-11.989,4.28168-22.97938,4.28168-21.26593,0-33.9685-13.98734-33.9685-34.82588,0-20.83724,12.27388-37.25164,32.39881-37.25164,22.5507,0,28.54453,19.84,28.54453,32.54257a47.468,47.468,0,0,1-.42739,5.85137Zm36.82295-8.992c.14247-7.99221-3.28184-20.40986-17.41293-20.40986-12.70258,0-18.269,11.704-19.26756,20.40986Z"/>
        <path d="M1073.078,1770.40474h12.56011V1871.7404H1073.078Z"/>
        <path d="M1183.54946,1836.6296c0,25.54761-17.69786,36.68049-34.39719,36.68049-18.6977,0-33.11242-13.70111-33.11242-35.53819,0-23.12185,15.12833-36.68179,34.25343-36.68179C1170.13328,1801.09011,1183.54946,1815.50613,1183.54946,1836.6296Zm-54.807.71361c0,15.12964,8.70582,26.54745,20.981,26.54745,11.989,0,20.981-11.27535,20.981-26.83238,0-11.704-5.85267-26.54744-20.69608-26.54744S1128.74242,1824.212,1128.74242,1837.34321Z"/>
        <path d="M1213.66886,1825.21179c0-8.84958-.28622-15.98571-.57115-22.5507h11.27535l.57115,11.8465h.28492c5.139-8.42089,13.27373-13.41748,24.54907-13.41748,16.69933,0,29.25944,14.13109,29.25944,35.1108,0,24.83529-15.12964,37.10918-31.40028,37.10918-9.1345,0-17.12671-3.99546-21.26593-10.84666h-.28622V1900h-12.41635Zm12.41635,18.41148a28.31619,28.31619,0,0,0,.57115,5.13775,19.38025,19.38025,0,0,0,18.84016,14.701c13.27373,0,20.981-10.84666,20.981-26.68991,0-13.84358-7.2786-25.69007-20.55232-25.69007-8.56336,0-16.55686,6.13629-18.98263,15.557a20.3466,20.3466,0,0,0-.85737,5.13776Z"/>
        <path d="M1309.15444,1821.3575c0-7.13613-.14246-12.9875-.57115-18.69641h10.99042l.56986,11.13289h.42868c3.85429-6.56628,10.27681-12.70387,21.69462-12.70387,9.41944,0,16.55686,5.7102,19.55378,13.84487h.28493a28.46459,28.46459,0,0,1,7.70728-8.992c4.13921-3.13938,8.70711-4.85283,15.2721-4.85283,9.1345,0,22.69315,5.99513,22.69315,29.973v40.67724h-12.27388v-39.10755c0-13.27373-4.85283-21.26594-14.98718-21.26594-7.13613,0-12.70257,5.28152-14.84341,11.41782a20.683,20.683,0,0,0-.99854,6.28v42.67562h-12.27518v-41.39086c0-10.99042-4.85283-18.98263-14.41473-18.98263-7.84974,0-13.55865,6.28006-15.557,12.56011a17.31707,17.31707,0,0,0-.99984,6.1376v41.67578h-12.27389Z"/>
        <path d="M1449.46167,1839.48405c.28493,16.98425,11.13288,23.97792,23.6917,23.97792,8.992,0,14.416-1.56969,19.12638-3.56807l2.14084,8.99205c-4.42543,1.99837-11.989,4.28168-22.97938,4.28168-21.26593,0-33.9685-13.98734-33.9685-34.82588,0-20.83724,12.27389-37.25164,32.39881-37.25164,22.5507,0,28.54453,19.84,28.54453,32.54257a47.468,47.468,0,0,1-.42739,5.85137Zm36.823-8.992c.14246-7.99221-3.28185-20.40986-17.41294-20.40986-12.70258,0-18.269,11.704-19.26756,20.40986Z"/>
        <path d="M1528.24922,1821.3575c0-7.13613-.14246-12.9875-.57115-18.69641H1538.811l.71361,11.41781h.28493c3.4256-6.565,11.4191-12.98879,22.83691-12.98879,9.5619,0,24.40661,5.7102,24.40661,29.4019v41.24839h-12.56011v-39.82117c0-11.13288-4.13922-20.40985-15.98571-20.40985a17.84492,17.84492,0,0,0-16.84179,12.84633,18.04954,18.04954,0,0,0-.85608,5.85137v41.53332h-12.56011Z"/>
        <path d="M1636.29492,1782.82109v19.84H1654.279v9.5619h-17.98409v37.25164c0,8.56336,2.42706,13.41619,9.42073,13.41619a27.91932,27.91932,0,0,0,7.27859-.85608l.57115,9.42073a30.76372,30.76372,0,0,1-11.13288,1.71216c-5.85137,0-10.56173-1.85591-13.55865-5.28022-3.56807-3.71183-4.85283-9.84942-4.85283-17.98409V1812.223h-10.7042v-9.5619h10.7042v-16.55686Z"/>
      </g>
    </g>
  </g>
</svg>
