<svg xmlns="http://www.w3.org/2000/svg" viewBox="0 0 1440.00071 1402.14264">
  <defs>
    <style>
      .a {
        fill: none;
        stroke: #003153;
        stroke-miterlimit: 10;
        stroke-width: 15px;
      }

      .b {
        fill: #003153;
      }
    </style>
  </defs>
  <g>
    <path class="a" d="M542.53408,1011.23809a51.143,51.143,0,0,1-6.69882-11.82861c-12.106-29.99436-14.93683-59.54286-7.63452-90.48931q41.025-173.85022,81.11-347.91016c4.46-19.21-2.42-33.16992-17.9-37.12988-16.62-4.26-29.75,4.88989-34.28,24.31006q-24.105,103.40991-48.01,206.86987-13.83,59.58-27.83,119.15015c-4.34,18.27978-15.74,27.40991-31.27,25.75976-15.69-1.67993-24.93-13.25976-25.25-31.67993-.06-3.76-.01-7.51-.01-11.27q0-181.03491-.01-362.05981c0-23.9502-10.56-38.40015-27.75-38.15015-17.16.26-25.89,12.92993-25.89,37.68994q-.015,184.56006-.01,369.1001c-.00994,29.68994-13.13,47.57007-36.44995,49.87988-25.32,2.51-41.82-12.26977-46.62-43.1499-13.68006-88.06006-26.99-176.18994-40.44-264.29-2.98-19.47-5.59-39.01-9-58.40991-2.85-16.16992-14.68006-25.16016-29.72-23.68994-14.63,1.42993-24.08,13.32983-23.4,29.6499a105.2148,105.2148,0,0,0,1.16,11.19995q26.505,176.02515,53.01,352.06006c4.1,27.41992-7.59,46.3999-30.97,51.66992-21.73,4.90015-40.24-7.03-48.79-31.84985q-27.9-81.1051-55.56-162.28c-1.67-4.87012-3.16-9.90015-5.63-14.36011-5.81-10.52-15.03-15.16992-26.99-13.62012-11.61,1.52-19.64,8.79-20.86,19.72022-1.04,9.27978.69995,19.56006,3.75994,28.52,43.6,127.73,87.25,255.45,131.89,382.81982,10.01,28.58008,24.39,55.6001,35.7,83.76,5.63,14.03,11.27,28.8,12.64,43.63013,2.12,22.81006.53,45.97.57995,68.98.04,19.65991,1.16,20.79,20.66,20.79q123.03.03,246.06.01c24.52,0,24.48-.01,24.01-24.19995-1.01-51.90015,15.97-95.76026,53.66-132.7002,20.55-20.15991,40.03-42.91992,54.15-67.83984,27-47.61011,50.4-97.31006,74.22-146.67017,26.01-53.88989,54.55-105.87988,96.98-149,9.96-10.11987,7.89-17.51-5.06994-23.72-13.82007-6.61987-24.57007.68994-34.88013,8.1001-38.54,27.72-69.18994,62.96-96.07,101.81982-16.16459,23.3639-34.55889,43.91125-56.00383,60.40242a50.28107,50.28107,0,0,1-70.59279-9.59422Z"/>
    <path class="b" d="M744.15283,351.66968a56.12388,56.12388,0,0,1,40.066,16.625,57.09069,57.09069,0,0,1,16.632,40.86914c-.15851,31.22412-25.56317,56.72973-56.63575,56.85644l-.24.00049a55.97072,55.97072,0,0,1-39.85852-16.75268,57.35145,57.35145,0,0,1-16.886-40.95972,56.929,56.929,0,0,1,56.69549-56.63818l.22406-.00049h.00269m-.00568-15c-.09021,0-.18609.00024-.27643.00049a71.92915,71.92915,0,0,0-71.64,71.56982c-.16956,39.90747,32.262,72.78076,71.74444,72.78076.10151,0,.204-.00024.30561-.00073,39.23-.15991,71.37-32.38989,71.56994-71.78a71.78069,71.78069,0,0,0-71.70355-72.57031Z"/>
    <path class="b" d="M744.20538,183.61914h-.00122l.30493.00086c31.56171.15087,56.30994,25.028,56.34161,56.63879a57.13422,57.13422,0,0,1-16.78973,40.727,56.18381,56.18381,0,0,1-39.99731,16.636l-.38965-.00147c-31.04126-.21362-56.36615-25.78931-56.45337-57.00732a56.43984,56.43984,0,0,1,56.98474-56.9939m-.00147-14.99988a71.43833,71.43833,0,0,0-71.98321,72.03089c.11005,39.3999,32.13,71.7,71.35,71.97.16546.00122.32769.00171.49285.00171,39.633,0,71.83692-32.40821,71.78711-72.38184a71.226,71.226,0,0,0-71.26989-71.61987c-.12812-.00061-.249-.001-.3769-.00086Z"/>
    <path class="b" d="M755.93792,15c2.33356,1.17847,4.96674,2.4989,7.86829,3.62488,25.9505,10.06592,41.29822,36.67846,36.493,63.28149-4.82092,26.71643-27.6803,46.50232-54.35431,47.04676-.4375.00891-.87787.01342-1.313.01342-27.94427,0-50.65362-18.497-56.50952-46.0282a54.97312,54.97312,0,0,1,5.4765-37.154A58.9485,58.9485,0,0,1,722.137,19.4668c3.01636-1.30506,5.926-2.67786,8.73974-4.0055q.48907-.2307.97809-.4613h24.08313m3.52277-15H728.52075c-4.11005,1.90015-8.18,3.90015-12.34,5.7-31.6,13.67017-49.69,47.65015-42.73,80.36011,7.35736,34.59045,36.129,57.90649,71.18109,57.90649.5365,0,1.07947-.00561,1.6189-.0166,33.81006-.68994,62.72-25.62988,68.81006-59.37988,6.09982-33.77-13.14014-67.25-45.83008-79.92993-3.35-1.3-6.52-3.08008-9.77-4.64014Z"/>
    <path class="b" d="M1212.23832,15c21.12746,8.36108,33.0874,18.583,39.7557,33.86243,12.523,28.68066-.17964,62.41089-28.31423,75.18945a56.46354,56.46354,0,0,1-23.49277,5.10718,57.29666,57.29666,0,0,1-51.69453-32.85535,56.63573,56.63573,0,0,1,26.87337-75.408c3.46287-1.6604,7.22711-3.1134,11.21234-4.65185,1.05233-.40625,2.124-.82,3.20619-1.2439h22.45393m2.79241-15h-28.12012c-6.01988,2.44019-12.18994,4.57007-18.02988,7.37012a71.95851,71.95851,0,0,0,61,130.34009c35.69006-16.21021,51.64-58.71021,35.86-94.8501-9.91994-22.73-28.74-34.59009-50.71-42.86011Z"/>
    <path class="b" d="M1199.80893,336.70459v15c.23522,0,.46661.00146.70661.00439a56.48789,56.48789,0,0,1,56.17511,57.04346,57.05918,57.05918,0,0,1-56.21444,57.249c-.24979.00342-.50067.00513-.74979.00513-30.74306,0-56.71567-26.22949-56.71567-57.28052a57.13323,57.13323,0,0,1,56.78789-57.02148l.01029-15m-.013,0c-39.41922.00293-71.79515,32.38013-71.78517,72.02539,0,39.46948,32.67527,72.27661,71.71566,72.27661.31709,0,.63632-.0022.95423-.00659a72.15413,72.15413,0,0,0,.02007-144.28979c-.30388-.00391-.60172-.00562-.90479-.00562Z"/>
    <path class="b" d="M1367.89037,183.34558a57.1898,57.1898,0,0,1,52.33628,34.30579q2.09391,4.76807,4.17683,9.53344l.59723,1.36426v22.62647c-8.66243,25.458-22.09061,39.21582-43.31689,44.48706a57.73979,57.73979,0,0,1-13.90856,1.71484,56.543,56.543,0,0,1-54.18922-40.45459c-8.60756-28.64209,6.43817-59.34033,34.25389-69.88757a56.34976,56.34976,0,0,1,20.04861-3.6897h.00183m-.00329-15a71.428,71.428,0,0,0-25.36632,4.66443,71.97817,71.97817,0,0,0,42.78,137.21c30-7.45,45.74-28.75976,54.69995-56.62988V225.40991q-3.015-6.88476-6.04-13.78979a72.21247,72.21247,0,0,0-66.07362-43.27454Z"/>
    <path class="b" d="M418.93621,15l.27423.11829c2.45008,1.05627,4.98353,2.14843,7.71686,3.16052a57.62731,57.62731,0,0,1,30.39429,25.13037,56.76552,56.76552,0,0,1,6.64594,38.59949,56.13041,56.13041,0,0,1-55.10047,46.9718l-.4837.00195c-27.32306,0-51.39563-19.47973-55.99408-45.30713-2.53821-14.28186-.38892-28.02588,6.21564-39.74621,6.58447-11.68457,17.14105-20.5409,30.537-25.61463,2.76111-1.0476,5.32349-2.1831,7.80152-3.28125L397.01831,15h21.9179m3.06452-15h-28.13c-3.34,1.44019-6.65,3-10.05,4.29-34.06,12.90015-52.63,45.83008-46.2,82.01,5.88568,33.05725,36.145,57.68237,70.76264,57.68237.2019,0,.40515-.00073.60736-.00244a71.12988,71.12988,0,0,0,69.76-59.42993c6.03-35.08984-13.04-67.91992-46.62-80.33984-3.43-1.27-6.76-2.8003-10.13-4.21021Z"/>
    <path class="b" d="M83.88867,15c2.33386,1.15466,4.96826,2.45142,7.81958,3.55786a59.49868,59.49868,0,0,1,30.26562,25.967,56.06476,56.06476,0,0,1,6.2251,38.27881C122.88818,109.98572,99.67553,128.97,71.75012,128.97c-.33069,0-.65711-.00256-.99292-.00793-27.5802-.4347-50.76-20.96643-55.11609-48.81653a55.32652,55.32652,0,0,1,7.66235-37.297A59.463,59.463,0,0,1,53.88867,18.01172c2.50427-.897,4.96032-1.82886,7.33557-2.73q.37116-.1408.74267-.28174H83.88867m3.462-15h-28.12c-3.47,1.30005-6.90991,2.64014-10.3999,3.89014C15.88073,15.71021-4.41919,48.90991.8208,82.46021c5.49,35.09985,34.78991,60.9497,69.7,61.5.41247.00659.81836.00988,1.22937.00988,35.02881,0,64.47912-24.04187,71.17053-58.29016,6.69006-34.25-12.46-68.12988-45.7699-81.09985-3.35-1.3-6.54-3.04-9.8-4.58008Z"/>
    <path class="b" d="M983.95752,351.70557h-.00019q.3229,0,.643.00366a56.65291,56.65291,0,0,1,56.17047,57.08447,57.15837,57.15837,0,0,1-16.48419,40.26807,56.4726,56.4726,0,0,1-39.812,16.9292c-.211.00244-.42495.00366-.63549.00366-30.85294,0-56.91834-26.24219-56.91834-57.30444a57.38525,57.38525,0,0,1,57.03684-56.98462m-.0004-15c-39.44476.001-72.03644,32.46655-72.03644,71.98462,0,39.3789,32.84232,72.30444,71.91834,72.30444.269,0,.54217-.00147.8117-.00464a72.14812,72.14812,0,0,0,.12-144.27978c-.27216-.00318-.54212-.00464-.81363-.00464Z"/>
    <path class="b" d="M995.27105,15l.16748.07642c2.44535,1.11608,4.97394,2.27014,7.76084,3.31945,27.17639,10.24524,41.88733,36.52552,36.60656,65.39344-4.69973,25.67627-28.53958,45.10412-55.45251,45.19067l-.16962.00037c-27.70315,0-50.66943-18.93079-55.84976-46.03626a56.50438,56.50438,0,0,1,6.002-38.6615A57.36487,57.36487,0,0,1,964.3038,18.68921c2.77908-1.07544,5.48962-2.20557,8.111-3.29858q.46857-.19538.93726-.39063h21.919m3.21964-15h-28.12c-3.82992,1.57007-7.63,3.21021-11.47995,4.7-33.34,12.86011-51.96008,46.16016-45.29,81.06006a71.20921,71.20921,0,0,0,70.58313,58.22034c.07035,0,.14652-.00013.21692-.00037,34.13-.10986,64.16007-24.71,70.16007-57.49,6.57992-35.97-12.17008-69.34985-46.07013-82.12988-3.39987-1.28-6.66986-2.8999-10-4.36011Z"/>
    <path class="b" d="M984.14321,183.63013c31.49265.01587,56.36664,24.77392,56.62806,56.363a56.96279,56.96279,0,0,1-16.56873,40.88965,56.114,56.114,0,0,1-40.11868,16.71753l-.14859-.00024A57.72785,57.72785,0,0,1,926.90969,240.864a55.89534,55.89534,0,0,1,16.364-40.16381,57.04762,57.04762,0,0,1,40.84021-17.07007h.02935m-.02932-15c-40.05979.0039-72.643,32.67456-72.20325,72.3999.43018,39.23,32.86011,71.48,71.99011,71.57007.06345.00024.11969.00024.18311.00024a71.83294,71.83294,0,0,0,71.68689-72.73022c-.33011-39.89014-31.82-71.22-71.62-71.24Z"/>
    <path class="b" d="M72.15429,168.61011v15c31.592,0,56.50074,24.67187,56.70679,56.1665a57.47476,57.47476,0,0,1-16.682,41.19922,56.38323,56.38323,0,0,1-80.23486-.24072,57.00129,57.00129,0,0,1-16.73389-40.825,56.6108,56.6108,0,0,1,56.8805-56.3h.05847l.005-15m-.00622,0h-.05725A71.61047,71.61047,0,0,0,.21069,239.80005c-.29,39.92016,32.21692,72.82007,71.95373,72.82007h.03626c39.91-.02,71.92-32.6001,71.66-72.94019a71.11549,71.11549,0,0,0-71.71264-71.06982Z"/>
    <path class="b" d="M551.88934,183.62817a57.24223,57.24223,0,0,1,40.5993,16.5813,57.23127,57.23127,0,0,1-40.41259,97.39282l-.45343-.0017a56.04834,56.04834,0,0,1-39.71442-16.79566,57.14119,57.14119,0,0,1-16.45746-40.29736c-.04755-31.66455,24.55035-56.64819,55.99677-56.87781l.4392-.00159h.00263m-.00513-15c-.17932,0-.36383.00061-.54345.002-39.73005.29-70.95,31.95-70.89,71.8999.06,39.71,31.66,71.75,71.05,72.07007.19378.00146.3819.00219.57538.00219,39.4309,0,72.15442-32.71606,72.11462-72.24218a71.82007,71.82007,0,0,0-72.30652-71.73194Z"/>
    <path class="b" d="M240.291,183.61731h-.00012l.52832.00232A56.99632,56.99632,0,0,1,240.111,297.604c-.19531,0-.38965-.001-.59009-.00317a55.8384,55.8384,0,0,1-39.67773-16.85864,57.89347,57.89347,0,0,1-16.35376-41.59156c.41662-31.13989,25.36682-55.53308,56.80163-55.53332m-.00012-15c-39.64612.00024-71.27307,30.9281-71.80017,70.33264-.54,40.57007,30.91,73.25,70.88,73.65015.24744.00244.49329.0039.74012.0039,39.41784,0,71.99029-32.50195,72.05987-72.074a71.7663,71.7663,0,0,0-71.23-71.90991q-.32556-.00274-.64978-.00281Z"/>
  </g>
</svg>
