<?xml version="1.0" encoding="utf-8"?>
<!-- Generator: Adobe Illustrator 24.1.2, SVG Export Plug-In . SVG Version: 6.00 Build 0)  -->
<svg version="1.1" id="Layer_1" xmlns="http://www.w3.org/2000/svg" xmlns:xlink="http://www.w3.org/1999/xlink" x="0px" y="0px"
	 viewBox="0 0 1337.7 99.3" style="enable-background:new 0 0 1337.7 99.3;" xml:space="preserve">
<style type="text/css">
	.st0{fill:#4A4A55;}
	.st1{fill:#FF3E00;}
	.st2{fill:#FFFFFF;}
	.st3{fill:#264DE4;}
	.st4{fill:#2965F1;}
	.st5{fill:#EBEBEB;}
	.st6{fill:#E44D26;}
	.st7{fill:#F16529;}
	.st8{fill:#F7DF1E;}
	.st9{display:none;}
	.st10{display:inline;fill:url(#SVGID_1_);}
	.st11{display:inline;fill:url(#SVGID_2_);}
	.st12{fill:#61DAFB;}
	.st13{fill:url(#SVGID_3_);}
	.st14{fill:url(#SVGID_4_);stroke:#FFFFFF;}
	.st15{fill:#330000;}
	.st16{fill:#FF9A00;}
	.st17{fill:#001E36;}
	.st18{fill:#31A8FF;}
</style>
<g>
	<g>
		<path class="st0" d="M783.6,64.1c-2.3,0.1-4.5-0.6-6.4-1.8c-1.8-1.2-3.1-2.9-3.8-5l3.9-1.4c0.5,1.3,1.4,2.3,2.6,3.1
			c1.1,0.8,2.5,1.2,3.9,1.1c1.3,0.1,2.6-0.3,3.7-1.1c0.9-0.8,1.5-2,1.4-3.2c0-0.6-0.1-1.1-0.4-1.6c-0.2-0.4-0.5-0.9-0.9-1.2
			c-0.4-0.4-0.9-0.7-1.5-1c-0.7-0.3-1.2-0.6-1.7-0.8c-0.4-0.2-1.1-0.4-1.9-0.7c-1.1-0.4-1.9-0.7-2.4-0.9c-0.7-0.3-1.4-0.7-2.1-1.1
			c-0.7-0.4-1.4-0.9-2-1.5c-0.5-0.6-0.9-1.2-1.2-1.9c-1.1-2.8-0.4-5.9,1.9-7.9c1.8-1.5,4.2-2.3,6.5-2.1c2-0.1,4,0.4,5.7,1.5
			c1.4,1,2.5,2.4,3,4l-3.8,1.3c-0.4-0.9-1-1.6-1.9-2.1c-1-0.6-2.1-0.8-3.3-0.8c-1.1-0.1-2.2,0.2-3.1,0.9c-0.8,0.6-1.2,1.5-1.1,2.5
			c0,0.7,0.3,1.4,0.9,1.9c0.5,0.5,1.2,0.9,1.8,1.2s1.6,0.6,2.9,1.1c0.8,0.3,1.4,0.5,1.8,0.7c0.4,0.1,1,0.4,1.7,0.7
			c0.6,0.3,1.2,0.6,1.7,0.9c0.5,0.4,1,0.7,1.4,1.1c0.5,0.4,0.9,0.9,1.2,1.5s0.6,1.2,0.7,1.8c0.2,0.7,0.3,1.5,0.3,2.3
			c0.1,2.4-0.9,4.6-2.7,6.1C788.5,63.4,786.1,64.2,783.6,64.1z M809.3,63.7l-9.6-28h4.5l6.4,19.5c0.4,1.1,0.6,2.1,0.9,3.2
			c0.2-1.1,0.5-2.2,0.9-3.2l6.3-19.5h4.4l-9.6,28H809.3z M831.5,63.7v-28h17.4v3.9h-13.2v7.7h8.5v3.9h-8.5v8.6h14.1v3.9L831.5,63.7z
			 M860.4,63.7v-28h4.2v24h13.7v4H860.4z M893.9,39.6v24h-4.2v-24h-7.9v-4h20v4H893.9z M910.5,63.7v-28h17.4v3.9h-13.2v7.7h8.5v3.9
			h-8.5v8.6h14.1v3.9L910.5,63.7z"/>
		<g>
			<path class="st1" d="M754.4,30.3c-4.9-7-14.5-9.1-21.5-4.6l-12.3,7.8c-3.3,2.1-5.7,5.5-6.4,9.4c-0.6,3.2-0.1,6.6,1.5,9.5
				c-1,1.6-1.8,3.4-2.1,5.3c-0.7,4,0.2,8.1,2.6,11.3c4.9,7,14.5,9.1,21.5,4.6l12.3-7.8c3.3-2.1,5.7-5.5,6.4-9.4
				c0.6-3.2,0.1-6.6-1.5-9.5c1-1.6,1.8-3.4,2.1-5.3C757.6,37.6,756.7,33.6,754.4,30.3"/>
			<path class="st2" d="M731.6,69.7c-4,1-8.1-0.5-10.5-3.9c-1.4-2-2-4.4-1.5-6.8c0.1-0.4,0.2-0.8,0.3-1.1l0.2-0.7l0.6,0.5
				c1.5,1.1,3.1,1.9,4.8,2.4l0.5,0.1v0.5c-0.1,0.6,0.1,1.3,0.5,1.8c0.7,1,2,1.5,3.1,1.2c0.3-0.1,0.5-0.2,0.8-0.3l12.3-7.8
				c0.6-0.4,1-1,1.2-1.7c0.1-0.7,0-1.5-0.5-2.1c-0.7-1-2-1.5-3.1-1.2c-0.3,0.1-0.5,0.2-0.8,0.3l-4.7,3c-0.8,0.5-1.6,0.9-2.5,1.1
				c-4,1-8.1-0.5-10.5-3.9c-1.4-2-2-4.4-1.5-6.8c0.4-2.3,1.8-4.4,3.8-5.7l12.3-7.8c0.8-0.5,1.6-0.9,2.5-1.1c4-1,8.1,0.5,10.5,3.9
				c1.4,2,2,4.4,1.5,6.8c-0.1,0.4-0.2,0.8-0.3,1.1l-0.2,0.7l-0.6-0.5c-1.5-1.1-3.1-1.9-4.8-2.4l-0.5-0.1v-0.5
				c0.1-0.6-0.1-1.3-0.5-1.8c-0.7-1-2-1.5-3.1-1.2c-0.3,0.1-0.5,0.2-0.8,0.3l-12.3,7.8c-0.6,0.4-1,1-1.2,1.7c-0.1,0.7,0,1.5,0.5,2.1
				c0.7,1,2,1.5,3.1,1.2c0.3-0.1,0.5-0.2,0.8-0.3l4.7-3c0.8-0.5,1.6-0.9,2.5-1.1c4-1,8.1,0.5,10.5,3.9c1.4,2,2,4.4,1.5,6.8
				c-0.4,2.3-1.8,4.4-3.8,5.7l-12.3,7.8C733.4,69,732.5,69.4,731.6,69.7"/>
		</g>
	</g>
	<g>
		<g>
			<polygon class="st3" points="29.2,90.9 5.3,84.2 0,24.6 58.4,24.6 53.1,84.2 			"/>
			<polygon class="st4" points="48.5,80.4 53.1,29.5 29.2,29.5 29.2,85.8 			"/>
			<polygon class="st5" points="12.2,51.6 12.8,58.9 29.2,58.9 29.2,51.6 			"/>
			<polygon class="st5" points="10.9,36.8 11.5,44.1 29.2,44.1 29.2,36.8 29.2,36.8 			"/>
			<polygon class="st5" points="29.2,70.6 29.2,70.6 21,68.4 20.5,62.6 16.5,62.6 13.2,62.6 14.2,74 29.2,78.2 29.2,78.2 			"/>
			<path d="M13.7,8.4h8.9v3.7h-5.2v3.7h5.2v3.7h-8.9C13.7,19.5,13.7,8.4,13.7,8.4z"/>
			<path d="M24.4,8.4h8.9v3.2h-5.2v0.6h5.2v7.4h-8.9v-3.4h5.2v-0.6h-5.2C24.4,15.6,24.4,8.4,24.4,8.4z"/>
			<path d="M35,8.4h8.9v3.2h-5.2v0.6h5.2v7.4H35v-3.4h5.2v-0.6H35V8.4z"/>
			<polygon class="st2" points="46.2,51.6 47.5,36.8 29.2,36.8 29.2,44.1 39.5,44.1 38.8,51.6 29.2,51.6 29.2,58.9 38.2,58.9 
				37.3,68.4 29.2,70.6 29.2,78.2 44.2,74 44.3,72.8 46,53.6 			"/>
		</g>
		<g>
			<polygon class="st6" points="127.4,24.6 122.1,84.2 98.2,90.9 74.3,84.2 69,24.6 			"/>
			<polygon class="st7" points="98.2,85.8 117.5,80.4 122.1,29.5 98.2,29.5 			"/>
			<polygon class="st5" points="87.9,44.1 98.2,44.1 98.2,36.8 98.2,36.8 79.9,36.8 80,38.8 81.8,58.9 98.2,58.9 98.2,51.6 
				88.5,51.6 			"/>
			<polygon class="st5" points="89.5,62.6 85.5,62.6 82.2,62.6 83.2,74 98.2,78.2 98.2,78.2 98.2,70.6 98.2,70.6 90,68.4 			"/>
			<path d="M74.4,8.4h3.7v3.7h3.4V8.4h3.7v11.1h-3.7v-3.7h-3.4v3.7h-3.7V8.4L74.4,8.4z"/>
			<path d="M90.1,12.1h-3.3V8.4h10.3v3.7h-3.3v7.4h-3.7V12.1L90.1,12.1z"/>
			<path d="M98.8,8.4h3.9l2.4,3.9l2.4-3.9h3.9v11.1h-3.7V14l-2.6,4H105l-2.6-4v5.5h-3.6V8.4z"/>
			<path d="M113.1,8.4h3.7v7.4h5.2v3.7h-8.9L113.1,8.4z"/>
			<polygon class="st2" points="98.2,58.9 107.2,58.9 106.3,68.4 98.2,70.6 98.2,78.2 113.2,74 113.3,72.8 115,53.6 115.2,51.6 
				113.2,51.6 98.2,51.6 			"/>
			<polygon class="st2" points="98.2,44.1 98.2,44.1 115.8,44.1 115.8,44.1 115.8,44.1 116,42.5 116.3,38.8 116.5,36.8 98.2,36.8 
				98.2,41.3 			"/>
		</g>
	</g>
	<g>
		<rect x="196.1" y="15.6" class="st8" width="68.2" height="68.2"/>
		<path d="M241.9,68.8c1.4,2.2,3.2,3.9,6.3,3.9c2.7,0,4.3-1.3,4.3-3.2c0-2.2-1.7-3-4.7-4.3l-1.6-0.7c-4.6-2-7.7-4.4-7.7-9.7
			c0-4.8,3.7-8.5,9.4-8.5c4.1,0,7,1.4,9.1,5.1l-5,3.2c-1.1-2-2.3-2.7-4.1-2.7c-1.5-0.2-2.9,1-3.1,2.5c0,0.1,0,0.2,0,0.3
			c0,1.9,1.2,2.7,3.9,3.9l1.6,0.7c5.4,2.3,8.5,4.7,8.5,10.1c0,5.8-4.5,8.9-10.6,8.9c-5.9,0-9.8-2.8-11.7-6.5L241.9,68.8z
			 M219.2,69.4c1,1.8,1.9,3.3,4.1,3.3c2.1,0,3.4-0.8,3.4-4V46.9h6.4v21.9c0,6.6-3.9,9.7-9.6,9.7c-4.1,0.2-7.9-2.1-9.6-5.9
			L219.2,69.4z"/>
	</g>
	<g>
		<g>
			<path d="M518.3,25.9h31.2v2.5h-28.3V47h26.6v2.5h-26.6v20.4h28.7v2.5h-31.5V25.9H518.3z M552.3,25.9h3.3l14.7,20.4l15-20.4
				L605.7,0l-33.5,48.4l17.3,23.8H586l-15.7-21.7l-15.8,21.7h-3.4l17.4-23.8L552.3,25.9z M590.7,28.4v-2.5h35.5v2.5h-16.4v43.9H607
				V28.4H590.7z"/>
			<polygon points="479.3,25.9 482.9,25.9 532.2,99.3 511.8,72.2 482.3,29.4 482.2,72.2 479.3,72.2 			"/>
		</g>
		<path d="M625.9,69c0.6,0,1-0.5,1-1c0-0.6-0.5-1-1-1c-0.6,0-1,0.5-1,1l0,0C624.9,68.6,625.3,69,625.9,69L625.9,69z M628.8,66.3
			c0,1.5,1.2,2.8,2.7,2.9c0.1,0,0.2,0,0.3,0c1.6,0.1,3-1,3.1-2.6c0-0.2,0-0.4,0-0.6v-7.1h-1.6V66c0,1.1-0.6,1.7-1.6,1.7
			c-0.8,0.1-1.4-0.5-1.5-1.3v-0.1L628.8,66.3z M637,66.2c0.1,1.8,1.6,2.9,3.8,2.9c2.4,0,3.9-1.2,3.9-3.1c0-1.5-0.8-2.3-2.9-2.8
			l-1.1-0.3c-1.3-0.3-1.8-0.7-1.8-1.4c0-0.9,0.8-1.5,2.1-1.5c1-0.1,1.9,0.5,2.1,1.5h1.5c-0.1-1.7-1.6-2.9-3.6-2.9
			c-2.2,0-3.7,1.2-3.7,3c0,1.5,0.8,2.3,2.6,2.8l1.3,0.3c1.3,0.3,1.9,0.8,1.9,1.5c0,0.9-0.9,1.5-2.2,1.5s-2.3-0.6-2.4-1.6L637,66.2z"
			/>
	</g>
	<g class="st9">
		
			<linearGradient id="SVGID_1_" gradientUnits="userSpaceOnUse" x1="997.4" y1="1947.75" x2="1046.4" y2="1947.75" gradientTransform="matrix(1 0 0 1 0 -1898)">
			<stop  offset="0" style="stop-color:#FF593D"/>
			<stop  offset="1" style="stop-color:#FF7751"/>
		</linearGradient>
		<path class="st10" d="M1021.9,25.1h-24.5v49.3h24.5c12.2,0,24.5-11,24.5-24.6S1034.2,25.1,1021.9,25.1z M1021.9,60.9
			c-6.2,0-11.2-5-11.2-11.2s5-11.2,11.2-11.2c6.2,0,11.2,5,11.2,11.2S1028.1,60.9,1021.9,60.9L1021.9,60.9z"/>
		
			<linearGradient id="SVGID_2_" gradientUnits="userSpaceOnUse" x1="1058.1998" y1="1947.65" x2="1160" y2="1947.65" gradientTransform="matrix(1 0 0 1 0 -1898)">
			<stop  offset="0" style="stop-color:#FF593D"/>
			<stop  offset="1" style="stop-color:#FF7751"/>
		</linearGradient>
		<path class="st11" d="M1071.5,25.1c7.4,0,11.1,4.5,11.1,10.6v5.5c0,6.1-3.8,10.6-11.1,10.6h-11.7V25.1H1071.5z M1076.1,35.7
			c0-3.4-1.8-5.2-5.8-5.2h-4v16h4c4,0,5.8-1.8,5.8-5.2V35.7z M1103,46.9h-9.7l-1.5,5h-6.6l9.5-26.7h6.7l9.5,26.7h-6.6L1103,46.9z
			 M1094.9,41.6h6.5l-3.2-10.6L1094.9,41.6z M1131.8,25.1v5.5h-7.2v21.2h-6.6V30.6h-7.2v-5.5H1131.8z M1147.7,52.4
			c-8.1,0-12.3-5.2-12.3-12.2v-3.4c0-7,4.2-12.2,12.3-12.2s12.3,5.2,12.3,12.2v3.4C1160,47.2,1155.8,52.4,1147.7,52.4z M1147.7,30
			c-3.8,0-5.7,2.6-5.7,6.4v4.1c0,3.8,1.9,6.4,5.7,6.4s5.7-2.6,5.7-6.4v-4.1C1153.4,32.6,1151.6,30,1147.7,30L1147.7,30z
			 M1065.7,71.4c1.6,0.1,3.1-1.1,3.2-2.7c0-0.1,0-0.2,0-0.3h3.7c0,3.4-2.6,6.3-6.9,6.3c-5,0-7.5-3.2-7.5-7.4v-2.1
			c0-4.2,2.4-7.4,7.5-7.4c4.3,0,6.8,2.9,6.9,6.3h-3.7c0-1.7-1.3-3-3-3l0,0c-0.1,0-0.2,0-0.3,0c-2.4,0-3.4,1.6-3.4,3.9v2.5
			C1062.3,69.8,1063.3,71.4,1065.7,71.4z M1088.7,58.1h3.7v16.3h-3.8v-8.6l-2.6,5h-3.2l-2.5-5v8.6h-3.8V58.1h3.7l4.3,8.9
			L1088.7,58.1z M1102.9,74.7c-3.9,0-6.5-1.9-6.5-5.1v-0.4h3.8v0.3c0,1.4,0.9,2.2,2.7,2.2c1.7,0,2.7-0.7,2.7-1.9
			c0.1-0.7-0.4-1.3-1.1-1.4l-4.1-1c-2.5-0.6-3.8-1.7-3.8-4.4c0-3.2,2.3-5.1,6.2-5.1c3.7,0,6,2,6,5v0.4h-3.7V63c0-1.1-0.6-2-2.3-2
			c-1.4,0-2.3,0.5-2.3,1.7c-0.1,0.6,0.4,1.2,1,1.3l4.3,1.2c2.6,0.7,3.7,2.1,3.7,4.4C1109.6,72.6,1106.7,74.7,1102.9,74.7z"/>
	</g>
	<g>
		<path class="st12" d="M410.6,49.6c0-5.1-6.4-10-16.3-13c2.3-10.1,1.3-18.1-3.2-20.6c-1.1-0.6-2.3-0.9-3.5-0.9v3.5
			c0.6,0,1.2,0.1,1.8,0.4c2.2,1.2,3.1,5.9,2.4,12c-0.2,1.5-0.5,3.1-0.8,4.7c-3.3-0.8-6.7-1.4-10.1-1.7c-2-2.8-4.2-5.4-6.6-7.9
			c5.2-4.8,10-7.4,13.3-7.4v-3.5l0,0c-4.4,0-10.1,3.1-15.8,8.5c-5.8-5.3-11.5-8.4-15.8-8.4v3.5c3.3,0,8.1,2.6,13.3,7.4
			c-2.4,2.5-4.5,5.1-6.5,7.9c-3.4,0.3-6.8,0.9-10.1,1.7c-0.4-1.6-0.6-3.1-0.8-4.6c-0.7-6,0.2-10.7,2.3-12c0.6-0.3,1.2-0.4,1.8-0.4
			v-3.5l0,0c-1.2,0-2.5,0.3-3.6,0.9c-4.4,2.6-5.4,10.6-3.1,20.6c-9.8,3-16.3,7.9-16.3,13s6.4,10,16.3,13
			c-2.3,10.1-1.3,18.1,3.2,20.6c1.1,0.6,2.3,0.9,3.6,0.9c4.4,0,10.1-3.1,15.8-8.5c5.8,5.3,11.5,8.4,15.8,8.4c1.2,0,2.5-0.3,3.6-0.9
			c4.4-2.6,5.4-10.6,3.1-20.6C404.2,59.7,410.6,54.8,410.6,49.6z M390,39.1c-0.6,2-1.3,4.1-2.1,6.3c-0.6-1.3-1.3-2.5-2.1-3.8
			c-0.7-1.3-1.5-2.5-2.3-3.7C385.7,38.2,387.9,38.6,390,39.1z M382.7,55.9c-1.2,2.1-2.5,4.2-3.8,6c-2.4,0.2-4.7,0.3-7.2,0.3
			c-2.4,0-4.8-0.1-7.1-0.3c-1.3-1.9-2.6-3.9-3.8-6c-1.2-2.1-2.3-4.2-3.3-6.3c1-2.1,2.1-4.2,3.3-6.3c1.2-2.1,2.5-4.2,3.8-6
			c2.4-0.2,4.7-0.3,7.2-0.3c2.4,0,4.8,0.1,7.1,0.3c1.3,1.9,2.6,3.9,3.8,6c1.2,2.1,2.3,4.2,3.3,6.3C385,51.8,383.9,53.9,382.7,55.9z
			 M387.9,53.9c0.9,2.1,1.6,4.2,2.2,6.3c-2.1,0.5-4.3,0.9-6.5,1.3c0.8-1.2,1.6-2.5,2.3-3.8C386.5,56.4,387.2,55.2,387.9,53.9
			L387.9,53.9z M371.8,70.8c-1.6-1.6-3-3.3-4.4-5.1c1.4,0.1,2.9,0.1,4.4,0.1s3,0,4.4-0.1C374.8,67.5,373.3,69.2,371.8,70.8
			L371.8,70.8z M360,61.5c-2.2-0.3-4.4-0.7-6.5-1.3c0.6-2,1.3-4.1,2.1-6.3c0.6,1.3,1.3,2.5,2.1,3.8S359.3,60.3,360,61.5z
			 M371.7,28.5c1.6,1.6,3,3.3,4.4,5.1c-1.4-0.1-2.9-0.1-4.4-0.1s-3,0-4.4,0.1C368.7,31.8,370.2,30.1,371.7,28.5z M360,37.8
			c-0.8,1.2-1.6,2.5-2.3,3.8c-0.7,1.3-1.4,2.5-2.1,3.8c-0.9-2.1-1.6-4.2-2.2-6.3C355.6,38.6,357.7,38.2,360,37.8L360,37.8z
			 M345.7,57.7c-5.6-2.4-9.2-5.5-9.2-8s3.6-5.6,9.2-8c1.4-0.6,2.8-1.1,4.4-1.6c1,3.3,2.2,6.5,3.6,9.6c-1.4,3.1-2.6,6.3-3.5,9.6
			C348.6,58.8,347.1,58.2,345.7,57.7L345.7,57.7z M354.2,80.3c-2.2-1.2-3.1-5.9-2.4-12c0.2-1.5,0.5-3.1,0.8-4.7
			c3.3,0.8,6.7,1.4,10.1,1.7c2,2.8,4.2,5.4,6.6,7.9c-5.2,4.8-10,7.4-13.3,7.4C355.4,80.7,354.8,80.6,354.2,80.3L354.2,80.3z
			 M391.7,68.2c0.7,6-0.2,10.7-2.3,12c-0.6,0.3-1.2,0.4-1.8,0.4c-3.3,0-8.1-2.6-13.3-7.4c2.4-2.5,4.5-5.1,6.5-7.9
			c3.4-0.3,6.8-0.9,10.1-1.7C391.3,65.1,391.6,66.7,391.7,68.2L391.7,68.2z M397.8,57.7c-1.4,0.6-2.8,1.1-4.4,1.6
			c-1-3.3-2.2-6.5-3.6-9.6c1.4-3.1,2.6-6.3,3.5-9.6c1.6,0.5,3.1,1,4.4,1.6c5.6,2.4,9.2,5.5,9.2,8C407.1,52.1,403.4,55.3,397.8,57.7
			L397.8,57.7z"/>
		<circle class="st12" cx="371.8" cy="49.6" r="7.2"/>
	</g>
</g>
<g>
	
		<linearGradient id="SVGID_3_" gradientUnits="userSpaceOnUse" x1="1276.2003" y1="2154.1951" x2="1352.0349" y2="2214.3926" gradientTransform="matrix(1 0 0 1 -270 -2132)">
		<stop  offset="0" style="stop-color:#9013FE"/>
		<stop  offset="1" style="stop-color:#6610F2"/>
	</linearGradient>
	<path class="st13" d="M1007,24.2c-0.2-4.7,3.5-9,8.5-9h50.7c5,0,8.6,4.3,8.5,9c-0.2,4.5,0,10.4,1.5,15.1c1.5,4.8,4,7.8,8,8.2v4.4
		c-4.1,0.4-6.6,3.4-8,8.2c-1.5,4.8-1.7,10.6-1.5,15.1c0.2,4.7-3.5,9-8.5,9h-50.7c-5,0-8.6-4.3-8.5-9c0.2-4.5,0-10.4-1.5-15.1
		c-1.5-4.8-4-7.8-8.1-8.2v-4.4c4.1-0.4,6.6-3.4,8.1-8.2C1007,34.6,1007.2,28.7,1007,24.2z"/>
	
		<linearGradient id="SVGID_4_" gradientUnits="userSpaceOnUse" x1="1299.4369" y1="2166.2332" x2="1316.3879" y2="2194.9009" gradientTransform="matrix(1 0 0 1 -270 -2132)">
		<stop  offset="0" style="stop-color:#FFFFFF"/>
		<stop  offset="1" style="stop-color:#F1E5FC"/>
	</linearGradient>
	<path class="st14" d="M1042.7,68.1c8,0,12.8-3.9,12.8-10.4c0-4.9-3.4-8.4-8.6-9v-0.2c3.8-0.6,6.7-4.1,6.7-8c0-5.6-4.4-9.2-11.1-9.2
		h-15v36.8C1027.5,68.1,1042.7,68.1,1042.7,68.1z M1033.4,36h7.8c4.2,0,6.6,1.9,6.6,5.3c0,3.6-2.8,5.7-7.9,5.7h-6.6
		C1033.4,47,1033.4,36,1033.4,36z M1033.4,63.5V51.3h7.7c5.5,0,8.4,2,8.4,6s-2.8,6.1-8.1,6.1h-8V63.5z"/>
</g>
<g id="vlpa">
	<g id="vlpb">
		<g id="vlpc">
			<g id="vlpd">
				<path class="st15" d="M1151.9,14.7h46.4c7,0,12.7,5.7,12.7,12.7v44.6c0,7-5.7,12.7-12.7,12.7h-46.4c-7,0-12.7-5.7-12.7-12.7
					V27.4C1139.2,20.3,1144.8,14.7,1151.9,14.7z"/>
			</g>
		</g>
	</g>
	<g id="vlpe">
		<g id="vlpf">
			<path class="st16" d="M1173.9,56.5h-11.1l-2.3,7c-0.1,0.3-0.3,0.4-0.6,0.4h-5.6c-0.3,0-0.4-0.2-0.3-0.5l9.6-27.7
				c0.1-0.3,0.2-0.6,0.3-1c0.1-0.6,0.2-1.3,0.2-1.9c0-0.1,0.1-0.3,0.2-0.3h0.1h7.7c0.2,0,0.4,0.1,0.4,0.2l10.9,30.8
				c0.1,0.3,0,0.5-0.3,0.5h-6.3c-0.2,0-0.4-0.1-0.5-0.3L1173.9,56.5L1173.9,56.5z M1164.5,50.5h7.6c-0.2-0.6-0.4-1.4-0.7-2.2
				c-0.3-0.8-0.5-1.7-0.8-2.6c-0.3-0.9-0.6-1.8-0.9-2.8c-0.3-0.9-0.6-1.8-0.8-2.7c-0.2-0.8-0.4-1.6-0.7-2.3h-0.1
				c-0.3,1.3-0.6,2.6-1,3.9c-0.4,1.4-0.9,2.9-1.4,4.4C1165.4,47.8,1164.9,49.2,1164.5,50.5z"/>
			<path class="st16" d="M1190,37.7c-1,0-1.9-0.4-2.7-1c-0.7-0.7-1-1.7-1-2.8c0-1,0.4-2,1.1-2.7c0.7-0.7,1.7-1,2.7-1
				c1.2,0,2.1,0.4,2.7,1c0.7,0.7,1,1.7,1,2.7c0,1-0.3,2-1,2.8C1192,37.4,1191,37.7,1190,37.7L1190,37.7z M1186.7,63.7v-23
				c0-0.3,0.1-0.4,0.4-0.4h5.9c0.3,0,0.4,0.1,0.4,0.4v23c0,0.3-0.1,0.5-0.4,0.5h-5.9C1186.8,64.1,1186.7,63.9,1186.7,63.7z"/>
		</g>
	</g>
</g>
<g id="Layer_2_1_">
	<g id="Surfaces">
		<g id="Photo_Surface">
			<g id="Outline_no_shadow">
				<path class="st17" d="M1278.6,14.7h46.4c7,0,12.7,5.7,12.7,12.7v44.6c0,7-5.7,12.7-12.7,12.7h-46.4c-7,0-12.7-5.7-12.7-12.7
					V27.4C1265.9,20.3,1271.6,14.7,1278.6,14.7z"/>
			</g>
		</g>
	</g>
	<g id="Outlined_Mnemonics_Logos">
		<g id="Ps">
			<path class="st18" d="M1282.1,63.7V33c0-0.2,0.1-0.3,0.3-0.3c0.5,0,1,0,1.7,0c0.7,0,1.5,0,2.3-0.1s1.7,0,2.6-0.1s1.8,0,2.7,0
				c2.5,0,4.5,0.3,6.2,0.9c1.5,0.5,2.9,1.3,4,2.5c1,1,1.7,2.1,2.2,3.4c0.4,1.3,0.7,2.5,0.7,3.9c0,2.6-0.6,4.7-1.8,6.4
				c-1.2,1.7-2.9,2.9-4.8,3.6c-2,0.7-4.3,1-6.7,1c-0.7,0-1.2,0-1.5,0c-0.3,0-0.7,0-1.3,0v9.6c0,0.2-0.1,0.4-0.3,0.4c0,0-0.1,0-0.1,0
				h-5.7C1282.2,64.1,1282.1,64,1282.1,63.7z M1288.6,38.4v10.1c0.4,0,0.8,0.1,1.2,0.1h1.6c1.2,0,2.3-0.2,3.4-0.5
				c1-0.3,1.8-0.8,2.5-1.6c0.6-0.7,0.9-1.8,0.9-3.1c0-0.9-0.2-1.9-0.7-2.7c-0.5-0.8-1.2-1.4-2.1-1.7c-1.1-0.4-2.3-0.6-3.5-0.6
				c-0.8,0-1.5,0-2,0C1289.2,38.3,1288.8,38.4,1288.6,38.4L1288.6,38.4z"/>
			<path class="st18" d="M1323.4,46.6c-0.9-0.5-1.9-0.8-2.9-1c-1.1-0.2-2.2-0.4-3.4-0.4c-0.6,0-1.2,0.1-1.8,0.2
				c-0.4,0.1-0.7,0.3-0.9,0.6c-0.1,0.2-0.2,0.5-0.2,0.8c0,0.3,0.1,0.5,0.3,0.8c0.3,0.3,0.6,0.6,1,0.8c0.7,0.4,1.4,0.7,2.1,1
				c1.6,0.5,3.2,1.3,4.6,2.2c1,0.6,1.8,1.5,2.4,2.5c0.5,1,0.7,2,0.7,3.1c0,1.4-0.4,2.8-1.2,4c-0.8,1.2-2,2.1-3.4,2.7
				c-1.5,0.6-3.3,1-5.4,1c-1.4,0-2.7-0.1-4.1-0.4c-1-0.2-2.1-0.5-3.1-1c-0.2-0.1-0.4-0.3-0.3-0.6v-5.2c0-0.1,0-0.2,0.1-0.3
				c0.1-0.1,0.2,0,0.3,0c1.2,0.7,2.4,1.2,3.7,1.5c1.1,0.3,2.3,0.4,3.5,0.4c1.1,0,1.9-0.1,2.5-0.4c0.5-0.2,0.8-0.7,0.8-1.3
				c0-0.4-0.2-0.8-0.7-1.2c-0.5-0.4-1.5-0.8-2.9-1.4c-1.5-0.5-2.9-1.3-4.2-2.2c-0.9-0.7-1.7-1.5-2.3-2.5c-0.5-1-0.7-2-0.7-3.1
				c0-1.3,0.4-2.5,1-3.6c0.7-1.2,1.9-2.2,3.1-2.8c1.4-0.7,3.2-1,5.3-1c1.2,0,2.5,0.1,3.7,0.3c0.9,0.1,1.8,0.4,2.6,0.7
				c0.1,0,0.2,0.1,0.3,0.3c0,0.1,0.1,0.2,0.1,0.4v4.9c0,0.1-0.1,0.2-0.1,0.3C1323.6,46.7,1323.5,46.7,1323.4,46.6z"/>
		</g>
	</g>
</g>
</svg>
