<svg xmlns="http://www.w3.org/2000/svg" xmlns:xlink="http://www.w3.org/1999/xlink" viewBox="0 0 1160 99.2755">
  <defs>
    <style>
      .a {
        fill: #4a4a55;
      }

      .b {
        fill: #ff3e00;
      }

      .c {
        fill: #fff;
      }

      .d {
        fill: #264de4;
      }

      .e {
        fill: #2965f1;
      }

      .f {
        fill: #ebebeb;
      }

      .g {
        fill: #e44d26;
      }

      .h {
        fill: #f16529;
      }

      .i {
        fill: #f7df1e;
      }

      .j {
        fill: url(#a);
      }

      .k {
        fill: url(#b);
      }

      .l {
        fill: #61dafb;
      }
    </style>
    <linearGradient id="a" x1="997.43747" y1="49.73699" x2="1046.39512" y2="49.73699" gradientUnits="userSpaceOnUse">
      <stop offset="0" stop-color="#ff593d"/>
      <stop offset="1" stop-color="#ff7751"/>
    </linearGradient>
    <linearGradient id="b" x1="1058.2732" y1="49.63775" x2="1160" y2="49.63775" xlink:href="#a"/>
  </defs>
  <g>
    <g>
      <path class="a" d="M783.58076,64.13306a11.31828,11.31828,0,0,1-6.449-1.82231,9.3405,9.3405,0,0,1-3.76538-4.98689l3.92557-1.44223a7.24134,7.24134,0,0,0,2.56367,3.10436,6.75256,6.75256,0,0,0,3.88525,1.14164,5.70515,5.70515,0,0,0,3.70479-1.12143,3.8894,3.8894,0,0,0,1.38193-3.20448,3.50429,3.50429,0,0,0-.3805-1.62217,4.85334,4.85334,0,0,0-.86116-1.22212,5.81033,5.81033,0,0,0-1.48219-.9814q-1.00185-.49989-1.66213-.7611-.661-.2595-1.9426-.70093-1.60286-.56048-2.40348-.88086a18.07678,18.07678,0,0,1-2.10283-1.06174,7.77369,7.77369,0,0,1-1.96277-1.48172,7.1873,7.1873,0,0,1-1.18155-1.94307,6.94256,6.94256,0,0,1,1.88248-7.89068,9.5133,9.5133,0,0,1,6.5292-2.123,9.82034,9.82034,0,0,1,5.66761,1.5221,7.3599,7.3599,0,0,1,2.98417,4.04591l-3.84529,1.28157a4.47658,4.47658,0,0,0-1.86274-2.06288,6.2563,6.2563,0,0,0-3.26413-.78126,5.03085,5.03085,0,0,0-3.1446.88133,2.95614,2.95614,0,0,0-1.14159,2.48334,2.59139,2.59139,0,0,0,.88086,1.9229,6.05619,6.05619,0,0,0,1.84257,1.24167q.96191.40066,2.92448,1.08143,1.20083.44138,1.78194.661t1.70255.74088a11.75064,11.75064,0,0,1,1.72229.94145A15.10417,15.10417,0,0,1,790.91,50.234a5.98012,5.98012,0,0,1,1.22212,1.46184,8.17375,8.17375,0,0,1,.72067,1.8021,8.27136,8.27136,0,0,1,.301,2.2635,7.54719,7.54719,0,0,1-2.68413,6.14817A10.43659,10.43659,0,0,1,783.58076,64.13306Zm25.67482-.48057-9.6134-28.039h4.48653l6.36854,19.54727a30.30063,30.30063,0,0,1,.88133,3.20443,30.09865,30.09865,0,0,1,.88134-3.20443l6.28867-19.54727h4.44615l-9.57349,28.039Zm22.23029,0V35.61369h17.38426v3.92562H835.652v7.69054h8.53129v3.92562H835.652v8.5714H849.751v3.92562Zm28.87952.00005V35.61369h4.16615V59.64706h13.69874v4.00548Zm33.56588-24.03341V63.65249h-4.1661V39.61913h-7.9304V35.61369h20.02738v4.00549Zm16.54247,24.03336V35.61369h17.38431v3.92562H914.64011v7.69054h8.53131v3.92562h-8.53131v8.5714h14.099v3.92562Z"/>
      <g>
        <path class="b" d="M754.36425,30.28081c-4.88846-6.99666-14.54317-9.0705-21.524-4.6228l-12.26,7.81388a14.06524,14.06524,0,0,0-6.35439,9.421,14.813,14.813,0,0,0,1.46071,9.50984,14.10408,14.10408,0,0,0-2.104,5.25646A14.989,14.989,0,0,0,716.143,68.99464c4.8895,6.99731,14.5443,9.07025,21.524,4.62279l12.26-7.81388a14.06289,14.06289,0,0,0,6.3544-9.421,14.81941,14.81941,0,0,0-1.45982-9.51007,14.102,14.102,0,0,0,2.10307-5.25623,14.985,14.985,0,0,0-2.56043-11.33544"/>
        <path class="c" d="M731.64249,69.65293a9.73838,9.73838,0,0,1-10.452-3.87438,9.01217,9.01217,0,0,1-1.54015-6.81682,8.5505,8.5505,0,0,1,.293-1.14489l.23089-.704.62807.46135a15.81537,15.81537,0,0,0,4.79586,2.39619l.45567.13824-.04193.45477a2.74827,2.74827,0,0,0,.49449,1.82288,2.93252,2.93252,0,0,0,3.147,1.16806,2.70092,2.70092,0,0,0,.753-.331l12.26007-7.813a2.5528,2.5528,0,0,0,1.15194-1.70673,2.72361,2.72361,0,0,0-.46421-2.05466,2.93474,2.93474,0,0,0-3.14822-1.16872,2.69954,2.69954,0,0,0-.75207.33072l-4.67849,2.98239a8.94671,8.94671,0,0,1-2.48955,1.09327,9.73845,9.73845,0,0,1-10.45238-3.87443,9.01218,9.01218,0,0,1-1.54015-6.81677,8.4557,8.4557,0,0,1,3.82147-5.66464l12.25927-7.81364a8.9323,8.9323,0,0,1,2.49124-1.09459,9.73839,9.73839,0,0,1,10.45214,3.87438,9.01235,9.01235,0,0,1,1.54015,6.81682,8.64879,8.64879,0,0,1-.293,1.14489l-.23089.704-.62778-.46064a15.80162,15.80162,0,0,0-4.7962-2.39723l-.45561-.13829.04192-.45477a2.75335,2.75335,0,0,0-.49448-1.82283,2.93252,2.93252,0,0,0-3.147-1.16806,2.70079,2.70079,0,0,0-.753.331l-12.26032,7.81331A2.5486,2.5486,0,0,0,726.69,45.57186a2.71961,2.71961,0,0,0,.46332,2.05489,2.93471,2.93471,0,0,0,3.14822,1.16872,2.70989,2.70989,0,0,0,.753-.331l4.67788-2.98126a8.92092,8.92092,0,0,1,2.48927-1.09417A9.73853,9.73853,0,0,1,748.674,48.26352a9.01219,9.01219,0,0,1,1.54015,6.81677,8.46,8.46,0,0,1-3.82147,5.66554l-12.25909,7.81251a8.93182,8.93182,0,0,1-2.49123,1.09459"/>
      </g>
    </g>
    <g>
      <g>
        <polygon class="d" points="29.162 90.851 5.314 84.231 0 24.623 58.396 24.623 53.076 84.221 29.162 90.851"/>
        <polygon class="e" points="48.522 80.426 53.068 29.497 29.198 29.497 29.198 85.784 48.522 80.426"/>
        <polygon class="f" points="12.183 51.605 12.838 58.915 29.198 58.915 29.198 51.605 12.183 51.605"/>
        <polygon class="f" points="10.867 36.808 11.531 44.118 29.198 44.118 29.198 36.808 29.173 36.808 10.867 36.808"/>
        <polygon class="f" points="29.198 70.591 29.166 70.6 21.024 68.401 20.504 62.57 16.547 62.57 13.165 62.57 14.189 74.049 29.165 78.206 29.198 78.197 29.198 70.591"/>
        <path d="M13.74317,8.42451h8.85442v3.70275H17.44593V15.83h5.15166v3.70275H13.74317Z"/>
        <path d="M24.36847,8.42451h8.85441v3.21978H28.07122v.644h5.15166v7.4055H24.36847V16.313h5.15166v-.644H24.36847Z"/>
        <path d="M34.99376,8.42451h8.85441v3.21978H38.69652v.644h5.15165v7.4055H34.99376V16.313h5.15166v-.644H34.99376Z"/>
        <polygon class="c" points="46.166 51.605 47.486 36.808 29.173 36.808 29.173 44.118 39.474 44.118 38.809 51.605 29.173 51.605 29.173 58.915 38.175 58.915 37.326 68.396 29.173 70.597 29.173 78.203 44.16 74.049 44.27 72.814 45.988 53.568 46.166 51.605"/>
      </g>
      <g>
        <polygon class="g" points="127.392 24.623 122.072 84.221 98.158 90.851 74.31 84.231 68.995 24.623 127.392 24.623"/>
        <polygon class="h" points="98.194 85.784 117.517 80.426 122.063 29.497 98.194 29.497 98.194 85.784"/>
        <polygon class="f" points="87.852 44.118 98.194 44.118 98.194 36.808 98.168 36.808 79.862 36.808 80.037 38.769 81.834 58.915 98.194 58.915 98.194 51.605 88.52 51.605 87.852 44.118"/>
        <polygon class="f" points="89.499 62.57 85.543 62.57 82.16 62.57 83.185 74.049 98.16 78.206 98.194 78.197 98.194 70.591 98.162 70.6 90.02 68.401 89.499 62.57"/>
        <path d="M74.42864,8.42451h3.71515v3.67055h3.39849V8.42451h3.71531V19.53985H81.54244V15.81778H78.144v3.72207H74.42881V8.42451Z"/>
        <path d="M90.14313,12.11052H86.87247v-3.686H97.13071v3.686H93.8586v7.42933H90.14329V12.11052Z"/>
        <path d="M98.75879,8.42451h3.87389l2.383,3.9056,2.38054-3.9056h3.87534V19.53985h-3.69986V14.03047l-2.556,3.95213h-.06391l-2.55779-3.95213v5.50938H98.7588V8.42451Z"/>
        <path d="M113.12049,8.42451h3.71628v7.44124h5.22459v3.6741h-8.94087Z"/>
        <polygon class="c" points="98.168 58.915 107.17 58.915 106.322 68.396 98.168 70.597 98.168 78.203 113.155 74.049 113.265 72.814 114.983 53.568 115.162 51.605 113.192 51.605 98.168 51.605 98.168 58.915"/>
        <polygon class="c" points="98.168 44.101 98.168 44.118 115.803 44.118 115.803 44.118 115.827 44.118 115.974 42.475 116.307 38.769 116.481 36.808 98.168 36.808 98.168 41.348 98.168 44.101"/>
      </g>
    </g>
    <g>
      <rect class="i" x="196.09003" y="15.55899" width="68.15755" height="68.15752"/>
      <path d="M241.8746,68.80732c1.37288,2.24162,3.15905,3.88931,6.31809,3.88931,2.65382,0,4.3491-1.32637,4.3491-3.159,0-2.19618-1.7418-2.97405-4.66284-4.25173l-1.60116-.687c-4.62173-1.969-7.69207-4.43565-7.69207-9.65024,0-4.80348,3.66-8.46019,9.37978-8.46019,4.07214,0,6.99967,1.41725,9.10931,5.128l-4.9874,3.20232c-1.09809-1.969-2.28273-2.74469-4.12191-2.74469a2.78658,2.78658,0,0,0-3.06492,2.74469c0,1.9214,1.19005,2.69926,3.938,3.88931l1.60116.6859c5.44179,2.33359,8.51428,4.71261,8.51428,10.06135,0,5.76635-4.52977,8.92539-10.6131,8.92539-5.9481,0-9.79089-2.83448-11.67117-6.54961Zm-22.62507.555c1.00614,1.78508,1.9214,3.29428,4.12191,3.29428,2.10423,0,3.43168-.8233,3.43168-4.02454V46.85411h6.40465v21.8645c0,6.63184-3.88823,9.65024-9.56369,9.65024a9.94271,9.94271,0,0,1-9.608-5.85019Z"/>
    </g>
    <g>
      <g>
        <path d="M518.31727,25.89245h31.18682v2.46686h-28.328V46.92569H547.8148v2.46687H521.17606V69.77662H549.829v2.46686H518.31727Zm33.98064,0h3.3136L570.2953,46.27652,585.304,25.89245,605.71817,0,572.1795,48.4188l17.28269,23.82468h-3.44354L570.2953,50.56107,554.507,72.24348H551.1284L568.541,48.4188Zm38.39876,2.46686V25.89245h35.54v2.46686H609.86357V72.24348h-2.85878V28.35931Z"/>
        <polygon points="479.301 25.892 482.875 25.892 532.151 99.275 511.788 72.243 482.29 29.398 482.16 72.243 479.301 72.243 479.301 25.892"/>
      </g>
      <path d="M625.94862,69.03217a1.03245,1.03245,0,1,0-1.02213-1.03239A1.00368,1.00368,0,0,0,625.94862,69.03217Zm2.8091-2.7161a2.79592,2.79592,0,0,0,3.05943,2.84082,2.87173,2.87173,0,0,0,3.10114-3.16648V58.91606h-1.55752v7.06742c0,1.11555-.56322,1.71143-1.55754,1.71143a1.39465,1.39465,0,0,1-1.5158-1.37884Zm8.19787-.09007c.11125,1.78764,1.6062,2.93089,3.83123,2.93089,2.378,0,3.866-1.19868,3.866-3.11105,0-1.50356-.8483-2.335-2.90646-2.81311l-1.10556-.27023c-1.30721-.30486-1.83566-.71367-1.83566-1.42734,0-.90075.82049-1.4897,2.05121-1.4897a1.91531,1.91531,0,0,1,2.12073,1.49663h1.51581c-.0904-1.68371-1.57838-2.86854-3.61568-2.86854-2.19027,0-3.65046,1.18483-3.65046,2.96554,0,1.46892.82744,2.342,2.64225,2.76462l1.29329.31179c1.32807.3118,1.91214.7691,1.91214,1.53128,0,.88689-.91782,1.53127-2.16941,1.53127-1.342,0-2.27371-.60281-2.40582-1.552Z"/>
    </g>
    <g>
      <path class="j" d="M1021.9166,25.10076H997.43747V74.37321h24.47913c12.24268,0,24.47852-11.03066,24.47852-24.6328S1034.15928,25.10076,1021.9166,25.10076Zm0,35.83084a11.19461,11.19461,0,1,1,.00934,0Z"/>
      <path class="k" d="M1071.51075,25.10947c7.36788,0,11.147,4.46665,11.147,10.61318v5.497c0,6.14591-3.77913,10.61255-11.147,10.61255h-11.68147V25.10947Zm4.58112,10.57709c0-3.39711-1.79437-5.19148-5.76451-5.19148h-3.97015v15.954h3.97015c3.97014,0,5.76451-1.79438,5.76451-5.19149Zm26.90379,11.185h-9.65814l-1.48889,4.96314h-6.56588l9.543-26.7252h6.71957l9.54365,26.72272h-6.56651Zm-8.05477-5.268h6.45141l-3.20673-10.574Zm36.90847-16.494v5.53742H1124.632V51.83218h-6.564V30.645h-7.21732V25.10947ZM1147.743,52.36664c-8.09272,0-12.25388-5.19211-12.25388-12.178V36.753c0-6.98585,4.16116-12.17734,12.25388-12.17734S1160,29.76713,1160,36.753v3.43569C1159.99749,47.17453,1155.83635,52.36664,1147.743,52.36664Zm0-22.3326c-3.81708,0-5.688,2.55841-5.688,6.3755v4.12258c0,3.8177,1.87091,6.37549,5.688,6.37549s5.688-2.55779,5.688-6.37549V36.40954C1153.431,32.59245,1151.56071,30.034,1147.743,30.034ZM1065.68463,71.3911a2.99457,2.99457,0,0,0,3.226-2.74374q.01149-.14222.0094-.285h3.70447c-.04666,3.44813-2.58578,6.33754-6.89626,6.33754-5.03221,0-7.455-3.16877-7.455-7.40894V65.1475c0-4.24017,2.42277-7.40832,7.455-7.40832,4.31048,0,6.8496,2.88817,6.89626,6.3363H1068.92a2.99457,2.99457,0,0,0-2.9503-3.03818q-.14267-.0021-.285.0094c-2.42339,0-3.40209,1.60772-3.40209,3.91414V67.477C1062.28254,69.78338,1063.26435,71.3911,1065.68463,71.3911Zm23.055-13.32652h3.68145V74.37321h-3.84384V65.7535l-2.56339,4.98493h-3.16815l-2.53912-4.98493v8.61971h-3.84446V58.06458h3.68083l4.28683,8.87667Zm14.164,16.63528c-3.91415,0-6.5466-1.86655-6.5466-5.14918v-.443h3.84383V69.435c0,1.3744.88537,2.2131,2.72578,2.2131,1.65438,0,2.74943-.67568,2.74943-1.93374a1.3383,1.3383,0,0,0-1.11993-1.44408l-4.07716-1.02536c-2.53974-.629-3.84446-1.74709-3.84446-4.40318,0-3.23846,2.30643-5.10189,6.17392-5.10189,3.6578,0,5.98787,1.97978,5.98787,4.9619V63.098h-3.7026v-.27936c0-1.09567-.606-2.004-2.2834-2.004-1.398,0-2.28279.489-2.28279,1.65376a1.24063,1.24063,0,0,0,1.04837,1.32836l4.33288,1.16472c2.60943.69871,3.65781,2.14342,3.65781,4.40318C1109.56652,72.62612,1106.67773,74.69986,1102.90357,74.69986Z"/>
    </g>
    <g>
      <path class="l" d="M410.603,49.64567c0-5.14443-6.4424-10.01976-16.31969-13.04309,2.27938-10.06724,1.26632-18.07671-3.19746-20.641a6.93992,6.93992,0,0,0-3.5457-.88643V18.605a3.66546,3.66546,0,0,1,1.80451.41155c2.15274,1.23466,3.08665,5.93587,2.35852,11.98255-.17411,1.48792-.459,3.055-.80727,4.65372a76.71158,76.71158,0,0,0-10.05142-1.72536,77.21489,77.21489,0,0,0-6.58486-7.9145c5.16025-4.79618,10.00393-7.42379,13.29636-7.42379V15.05932h0c-4.353,0-10.05141,3.10249-15.81317,8.48434-5.76175-5.3502-11.46019-8.421-15.81316-8.421V18.6525c3.2766,0,8.1361,2.61179,13.29635,7.37631a74.76548,74.76548,0,0,0-6.53737,7.89867,73.91834,73.91834,0,0,0-10.06724,1.74119c-.36407-1.5829-.63316-3.11831-.82311-4.59041-.744-6.04667.17412-10.74788,2.311-11.99837a3.52269,3.52269,0,0,1,1.82034-.41156V15.13847h0a7.058,7.058,0,0,0-3.57736.88642c-4.448,2.5643-5.44517,10.55794-3.15,20.59352-9.84564,3.03916-16.25638,7.89866-16.25638,13.02726,0,5.14442,6.4424,10.01975,16.3197,13.04308-2.27938,10.06724-1.26632,18.07671,3.19746,20.641a6.95829,6.95829,0,0,0,3.56152.88642c4.353,0,10.05142-3.10249,15.81317-8.48434,5.76175,5.35019,11.46019,8.421,15.81317,8.421a7.05779,7.05779,0,0,0,3.57735-.88643c4.44795-2.5643,5.44518-10.55793,3.15-20.59352C404.19221,59.64959,410.603,54.77426,410.603,49.64567ZM389.99359,39.08773c-.58567,2.04194-1.3138,4.14719-2.13691,6.25245-.649-1.26632-1.32964-2.53264-2.0736-3.799-.72814-1.26632-1.50376-2.501-2.27938-3.704C385.75142,38.16965,387.92,38.5812,389.99359,39.08773ZM382.74391,55.9456c-1.23466,2.13692-2.501,4.163-3.81479,6.04668-2.35852.20577-4.74869.31658-7.1547.31658-2.39018,0-4.78036-.11081-7.12305-.30075q-1.97071-2.82548-3.83062-6.015-1.80451-3.1104-3.29243-6.29993c.9814-2.12109,2.08943-4.24217,3.2766-6.31577,1.23466-2.13691,2.501-4.163,3.81479-6.04667,2.35852-.20578,4.7487-.31658,7.15471-.31658,2.39018,0,4.78036.1108,7.123.30075q1.9707,2.82546,3.83062,6.015,1.8045,3.1104,3.29243,6.29994C385.02329,51.75092,383.93109,53.872,382.74391,55.9456Zm5.11277-2.05777c.85477,2.12109,1.5829,4.24217,2.1844,6.29994-2.0736.50653-4.258.93391-6.52155,1.26632.77562-1.21883,1.55124-2.46932,2.27937-3.75147C386.527,56.4363,387.20769,55.15415,387.85668,53.88783Zm-16.0506,16.88954a65.25916,65.25916,0,0,1-4.40046-5.06528c1.42461.06332,2.88088.11081,4.353.11081,1.48792,0,2.96-.03166,4.40045-.11081A61.78416,61.78416,0,0,1,371.80608,70.77737ZM360.0293,61.45409c-2.24772-.33241-4.41629-.744-6.48989-1.25049.58568-2.04193,1.31381-4.14719,2.13692-6.25245.649,1.26632,1.32963,2.53264,2.0736,3.799S359.25368,60.25109,360.0293,61.45409ZM371.72694,28.514a65.25883,65.25883,0,0,1,4.40045,5.06528c-1.42461-.06331-2.88087-.1108-4.353-.1108-1.48792,0-2.96.03166-4.40046.1108A61.78589,61.78589,0,0,1,371.72694,28.514Zm-11.71346,9.32328c-.77562,1.21883-1.55124,2.46932-2.27938,3.75147-.72813,1.26632-1.40878,2.53263-2.05777,3.79895-.85476-2.12108-1.5829-4.24217-2.1844-6.29993C355.56553,38.597,357.74993,38.16965,360.01348,37.83724Zm-14.32525,19.8179c-5.60346-2.39018-9.2283-5.52432-9.2283-8.00947s3.62484-5.63513,9.2283-8.00947c1.3613-.58568,2.84922-1.108,4.38464-1.59873a76.02473,76.02473,0,0,0,3.56152,9.63985,74.95325,74.95325,0,0,0-3.514,9.59237C348.55328,58.779,347.06535,58.24081,345.68823,57.65514Zm8.516,22.61962c-2.15274-1.23466-3.08665-5.93587-2.35852-11.98254.17412-1.48793.459-3.055.80728-4.65373a76.7102,76.7102,0,0,0,10.05142,1.72536,77.21381,77.21381,0,0,0,6.58486,7.9145c-5.16025,4.79618-10.00393,7.42379-13.29636,7.42379A3.77748,3.77748,0,0,1,354.20423,80.27476Zm37.54639-12.06169c.744,6.04668-.17412,10.74788-2.311,11.99837a3.52281,3.52281,0,0,1-1.82034.41156c-3.2766,0-8.1361-2.61179-13.29636-7.37631a74.76328,74.76328,0,0,0,6.53738-7.89867,73.9168,73.9168,0,0,0,10.06724-1.74119A44.31761,44.31761,0,0,1,391.75062,68.21307Zm6.09416-10.55793c-1.36129.58567-2.84922,1.108-4.38463,1.59873a76.0244,76.0244,0,0,0-3.56153-9.63986,74.95325,74.95325,0,0,0,3.514-9.59237c1.56708.4907,3.055,1.02889,4.44795,1.61456,5.60347,2.39017,9.2283,5.52432,9.2283,8.00947C407.07309,52.13082,403.44824,55.28079,397.84478,57.65514Z"/>
      <circle class="l" cx="371.75859" cy="49.64567" r="7.23385"/>
    </g>
  </g>
</svg>
